<svg xmlns="http://www.w3.org/2000/svg">
    <defs>
        <linearGradient id="grad1" x1="0%" y1="0%" x2="100%" y2="0%">
            <stop offset="0%" style="stop-color:rgb(0,168,212);stop-opacity:1"/>
            <stop offset="100%" style="stop-color:rgb(134,24,173);stop-opacity:1"/>
        </linearGradient>
    </defs>
    <symbol viewBox="0 0 1182.0087 835.99994" id="sg">
        <defs>
            <linearGradient id="sgGrad" x1="0%" y1="0%" x2="100%" y2="0%">
                <stop offset="0%" style="stop-color:rgb(0,168,212);stop-opacity:1"/>
                <stop offset="100%" style="stop-color:rgb(134,24,173);stop-opacity:1"/>
            </linearGradient>
        </defs>
        <g transform="translate(0.000000,837.000000) scale(0.100000,-0.100000)" class="sg" stroke="none">
            <path d="M151 8357 c-19 -6 -54 -29 -77 -51 -80 -77 -75 47 -72 -1716 l3 -1565 24 -48 c25 -52 71 -92 128 -113 31 -11 376 -13 1928 -14 1878 0 1890 -1 1935 -21 59 -26 77 -44 106 -102 l25 -48 -3 -333 -3 -333 -28 -41 c-15 -23 -46 -54 -69 -69 l-42 -28 -1297 0 -1297 0 -44 30 c-28 20 -52 49 -70 84 -25 48 -28 66 -28 146 0 78 -4 99 -26 143 -28 56 -68 92 -123 111 -23 7 -175 11 -490 11 -421 0 -459 -2 -497 -19 -53 -24 -109 -91 -123 -146 -7 -30 -11 -263 -11 -733 0 -782 -2 -765 74 -837 23 -22 60 -46 83 -53 31 -9 604 -12 2564 -12 2420 0 2526 1 2564 19 51 23 111 89 124 138 17 58 15 3152 -1 3207 -16 54 -90 128 -144 144 -32 9 -469 12 -1920 12 -1312 0 -1891 3 -1918 11 -56 16 -129 92 -144 151 -15 58 -16 608 -2 657 16 55 57 106 109 135 l49 26 4451 0 c4002 0 4455 -2 4489 -16 71 -29 131 -110 132 -176 0 -73 22 -132 68 -180 74 -79 74 -79 613 -76 458 3 465 3 506 25 50 27 100 86 113 133 6 21 10 302 10 710 0 633 -2 677 -19 715 -23 51 -65 93 -116 116 -39 18 -232 19 -5770 18 -4129 -1 -5740 -4 -5764 -12z"/>
            <path d="M6557 6106 c-57 -21 -103 -61 -128 -113 l-24 -48 -3 -1555 c-2 -1078 1 -1571 8 -1607 15 -70 57 -125 121 -157 l53 -26 2530 0 c2444 0 2532 1 2571 19 22 10 54 34 72 52 68 72 63 -57 63 1691 0 1521 -1 1585 -19 1623 -10 22 -34 54 -52 72 -71 67 33 63 -1607 63 -1141 0 -1494 -3 -1526 -12 -54 -16 -131 -93 -145 -144 -7 -26 -11 -262 -11 -714 0 -633 2 -677 19 -715 10 -22 31 -53 47 -69 66 -66 61 -66 567 -66 391 0 463 2 495 16 78 32 130 108 139 203 9 109 48 171 129 208 53 24 58 24 282 21 l229 -3 41 -28 c23 -15 54 -46 69 -69 l28 -41 3 -326 c2 -218 0 -339 -8 -364 -14 -49 -65 -106 -115 -128 -38 -18 -103 -19 -1293 -19 -1393 0 -1277 -6 -1355 68 -69 67 -67 27 -67 1071 0 884 -1 938 -19 976 -23 51 -89 111 -138 124 -60 17 -908 14 -956 -3z"/>
            <path d="M279 2154 c-70 -21 -140 -73 -173 -128 -24 -38 -31 -63 -34 -116 -5 -80 15 -127 77 -183 52 -47 93 -67 233 -116 192 -66 241 -97 259 -163 31 -118 -131 -201 -297 -153 -57 16 -95 47 -167 135 -15 17 -18 18 -83 1 -37 -9 -69 -22 -71 -28 -8 -22 46 -109 95 -155 87 -82 191 -120 325 -119 285 1 448 204 337 420 -39 77 -122 131 -290 189 -211 73 -250 99 -250 161 0 79 56 115 180 115 96 0 126 -11 178 -68 18 -20 36 -36 40 -35 31 2 127 47 130 60 4 24 -57 100 -112 136 -26 18 -71 40 -99 48 -64 19 -216 19 -278 -1z"/>
            <path d="M3914 2153 c-158 -46 -251 -221 -186 -349 24 -47 85 -105 140 -133 22 -11 91 -38 154 -60 210 -72 258 -108 258 -193 0 -54 -19 -82 -73 -109 -119 -61 -300 -18 -364 88 -12 20 -27 39 -33 43 -16 10 -143 -23 -148 -38 -13 -40 102 -178 184 -220 160 -82 380 -69 504 29 118 93 137 254 44 376 -43 56 -124 101 -284 158 -183 65 -224 92 -228 154 -3 35 2 46 26 70 75 76 248 66 326 -19 41 -44 38 -44 126 -10 25 10 46 24 48 32 5 23 -58 99 -112 135 -26 18 -71 40 -99 48 -65 19 -215 18 -283 -2z"/>
            <path d="M953 2153 c-10 -4 -13 -114 -13 -503 0 -389 3 -499 13 -503 6 -2 160 -2 340 1 l328 5 -3 71 -3 71 -253 3 -253 2 3 138 3 137 233 3 232 2 0 75 0 75 -235 0 -235 0 0 135 0 135 253 2 252 3 3 69 c2 49 -1 72 -10 77 -14 9 -634 11 -655 2z"/>
            <path d="M4513 2153 c-9 -3 -13 -29 -13 -79 l0 -74 155 0 155 0 0 -420 c0 -404 1 -420 19 -430 23 -12 120 -13 138 -2 10 6 13 107 15 428 l3 419 155 5 155 5 3 69 c2 49 -1 72 -10 77 -14 9 -754 11 -775 2z"/>
            <path d="M5733 2153 c-10 -4 -13 -114 -13 -503 0 -466 1 -499 18 -504 9 -2 163 -1 342 2 l325 7 3 49 c2 27 1 60 -3 73 l-5 23 -253 2 -252 3 0 135 0 135 235 5 235 5 0 70 0 70 -235 5 -235 5 0 130 0 130 250 3 c184 2 251 6 257 15 4 6 8 38 8 69 0 47 -4 59 -19 68 -20 10 -633 14 -658 3z"/>
            <path d="M8213 2136 c-233 -77 -376 -262 -376 -486 0 -194 114 -368 296 -454 96 -45 153 -57 262 -57 246 1 457 149 525 369 22 72 27 191 8 210 -8 8 -65 12 -189 12 l-177 0 -71 -66 c-98 -91 -94 -94 111 -94 l160 0 -7 -27 c-10 -41 -61 -118 -103 -154 -20 -18 -66 -46 -102 -63 -59 -28 -74 -31 -160 -30 -74 0 -108 5 -152 23 -79 31 -159 106 -199 187 -27 55 -32 74 -32 143 0 63 5 89 26 134 102 224 389 295 597 147 15 -11 32 -20 38 -20 18 0 102 82 102 100 0 24 -96 87 -180 119 -52 19 -88 25 -185 28 -106 3 -129 0 -192 -21z"/>
            <path d="M1755 2138 c-3 -7 -4 -231 -3 -498 l3 -485 254 -3 c210 -2 264 0 310 14 160 46 245 144 245 284 0 99 -55 184 -136 212 -16 6 -28 14 -28 19 0 5 20 28 44 52 64 62 78 122 50 216 -20 70 -77 130 -157 167 l-62 29 -258 3 c-205 3 -258 1 -262 -10z m478 -149 c21 -5 52 -23 70 -39 27 -24 32 -35 32 -75 0 -42 -4 -51 -35 -76 -45 -38 -78 -44 -240 -44 l-135 0 -3 109 c-1 61 0 116 2 123 7 16 251 18 309 2z m76 -419 c61 -34 86 -71 85 -124 -1 -55 -25 -90 -82 -118 -43 -21 -60 -23 -217 -23 l-170 0 -3 134 c-1 74 0 141 3 149 4 11 36 13 173 10 156 -3 170 -5 211 -28z"/>
            <path d="M2990 2131 c-18 -35 -380 -954 -380 -967 0 -6 7 -15 16 -18 28 -11 130 -6 146 6 9 7 33 58 53 113 21 55 42 106 48 113 7 9 67 12 238 12 265 0 235 13 289 -130 44 -115 49 -120 125 -120 34 0 68 6 77 13 15 11 14 18 -11 82 -16 39 -103 260 -195 493 l-168 422 -113 0 c-103 0 -115 -2 -125 -19z m213 -372 c42 -107 75 -200 72 -206 -6 -18 -321 -19 -327 -1 -2 6 27 91 65 187 38 97 73 186 78 199 5 13 15 22 22 20 6 -2 47 -92 90 -199z"/>
            <path d="M5390 1651 c0 -562 -8 -511 84 -511 93 0 87 -42 84 515 l-3 490 -82 3 -83 3 0 -500z"/>
            <path d="M6540 1651 c0 -562 -8 -511 84 -511 94 0 89 -21 84 363 -3 252 -1 337 7 337 7 0 27 -24 45 -52 66 -108 443 -629 460 -638 21 -11 109 -14 134 -4 14 5 16 59 16 505 l0 500 -82 -3 -83 -3 -1 -339 c0 -232 -4 -341 -11 -343 -6 -2 -21 13 -34 34 -13 21 -121 176 -241 346 l-219 307 -79 0 -80 0 0 -499z"/>
            <path d="M9050 1650 l0 -500 85 0 85 0 0 235 c0 196 2 235 14 235 8 0 114 -106 237 -234 122 -129 228 -237 236 -240 23 -9 157 -7 172 3 7 5 12 13 10 19 -2 6 -88 98 -191 205 -104 107 -188 199 -188 205 0 5 26 12 58 16 32 4 85 19 118 35 171 81 205 292 67 422 -90 86 -148 99 -455 99 l-248 0 0 -500z m507 335 c135 -40 151 -174 28 -235 -47 -23 -60 -25 -205 -25 l-155 0 -3 124 c-1 69 0 131 2 138 8 19 266 18 333 -2z"/>
            <path d="M10323 2138 c-14 -18 -383 -955 -383 -972 0 -8 7 -17 16 -20 20 -8 118 -8 137 0 9 3 34 54 58 112 23 59 47 113 52 120 7 9 67 12 237 12 170 0 230 -3 238 -12 6 -7 29 -60 52 -118 23 -58 47 -108 53 -112 14 -9 119 -10 141 -2 9 3 16 13 16 22 0 8 -83 225 -184 481 -102 256 -188 474 -192 484 -5 15 -21 17 -119 17 -78 0 -116 -4 -122 -12z m210 -382 c43 -108 75 -201 72 -206 -8 -13 -322 -13 -330 -1 -3 6 26 90 65 188 93 235 89 225 103 220 6 -2 47 -92 90 -201z"/>
            <path d="M10984 2136 c-3 -8 -4 -171 -2 -363 4 -338 4 -350 28 -408 32 -83 123 -173 205 -205 198 -75 434 -14 529 139 56 89 59 111 64 469 2 183 1 344 -2 358 -6 23 -10 24 -85 24 -63 0 -80 -3 -85 -16 -3 -9 -6 -167 -6 -352 0 -379 -2 -389 -75 -449 -88 -73 -258 -68 -332 9 -69 73 -68 66 -71 456 l-3 352 -80 0 c-60 0 -81 -4 -85 -14z"/>
            <path d="M2155 661 c-58 -16 -84 -30 -126 -68 -184 -166 -60 -447 196 -447 149 0 260 93 280 237 l7 47 -109 0 c-104 0 -111 -1 -133 -25 l-23 -25 96 0 c54 0 97 -4 97 -9 0 -52 -75 -134 -142 -157 -184 -61 -356 118 -271 281 26 50 46 68 103 94 75 34 179 23 232 -26 18 -16 20 -15 41 6 22 22 22 22 2 38 -61 47 -180 73 -250 54z"/>
            <path d="M4010 405 l0 -255 30 0 30 0 0 111 c0 132 14 173 68 196 43 18 82 10 113 -23 22 -24 24 -35 27 -155 l4 -129 29 0 29 0 0 128 c0 101 -4 134 -18 162 -39 79 -142 105 -216 55 l-36 -24 0 94 0 95 -30 0 -30 0 0 -255z"/>
            <path d="M4464 646 c-3 -8 -4 -25 -2 -38 2 -19 9 -23 38 -23 33 0 35 2 35 35 0 32 -3 35 -33 38 -21 2 -34 -2 -38 -12z"/>
            <path d="M6224 641 c-30 -18 -54 -64 -54 -102 0 -15 -8 -19 -40 -19 -38 0 -40 -2 -40 -30 0 -28 2 -30 40 -30 l40 0 0 -155 0 -155 30 0 30 0 0 155 0 155 55 0 c54 0 55 0 55 30 0 30 0 30 -56 30 l-56 0 6 28 c9 36 41 62 77 62 24 0 29 4 29 25 0 23 -4 25 -42 25 -25 0 -56 -8 -74 -19z"/>
            <path d="M7780 405 l0 -255 30 0 30 0 0 255 0 255 -30 0 -30 0 0 -255z"/>
            <path d="M5128 614 c-23 -12 -28 -21 -28 -54 0 -39 -1 -40 -35 -40 -32 0 -35 -2 -35 -30 0 -28 3 -30 35 -30 l35 0 0 -94 c0 -51 3 -107 6 -125 9 -44 47 -78 98 -85 54 -8 76 0 76 30 0 21 -5 24 -36 24 -70 0 -74 7 -74 135 l0 115 55 0 c54 0 55 0 55 30 0 30 -1 30 -55 30 l-55 0 0 55 c0 30 -3 55 -7 55 -5 -1 -20 -8 -35 -16z"/>
            <path d="M2620 335 l0 -185 30 0 30 0 0 111 c0 160 25 201 122 203 39 1 43 3 46 29 3 26 2 27 -46 27 -36 0 -59 -7 -86 -25 l-36 -24 0 24 c0 21 -5 25 -30 25 l-30 0 0 -185z"/>
            <path d="M3035 507 c-16 -8 -47 -32 -67 -55 -106 -118 -14 -302 152 -302 49 0 120 27 135 50 12 20 25 10 25 -20 0 -27 3 -30 30 -30 l30 0 0 185 0 185 -30 0 c-27 0 -30 -3 -30 -30 0 -16 -3 -30 -6 -30 -3 0 -21 12 -41 27 -29 22 -48 28 -102 30 -40 2 -78 -2 -96 -10z m177 -65 c16 -9 38 -36 49 -59 17 -36 19 -48 10 -76 -34 -101 -166 -134 -243 -61 -44 44 -53 84 -29 139 35 79 132 105 213 57z"/>
            <path d="M3470 265 l0 -255 30 0 30 0 0 100 c0 100 5 115 31 83 56 -67 215 -53 282 26 23 28 47 86 47 116 0 61 -50 134 -113 166 -58 30 -151 23 -204 -14 l-38 -27 -3 30 c-3 26 -7 30 -33 30 l-29 0 0 -255z m252 195 c55 -16 98 -70 98 -125 0 -140 -214 -178 -275 -48 -31 66 5 141 80 168 49 17 51 17 97 5z"/>
            <path d="M4470 335 l0 -185 30 0 30 0 0 185 0 185 -30 0 -30 0 0 -185z"/>
            <path d="M4718 504 c-33 -18 -48 -43 -48 -82 0 -44 27 -69 109 -101 89 -34 111 -57 83 -91 -28 -34 -94 -32 -132 5 -22 21 -35 26 -54 21 -31 -8 -32 -16 -6 -48 64 -83 233 -74 264 13 22 63 -16 111 -120 149 -37 14 -72 33 -78 42 -26 43 71 72 112 35 14 -13 28 -16 46 -11 35 9 30 32 -13 61 -40 27 -120 31 -163 7z"/>
            <path d="M5475 504 c-101 -52 -139 -146 -96 -240 48 -106 196 -147 312 -86 30 15 55 35 57 44 5 24 -43 32 -73 12 -39 -25 -95 -35 -139 -23 -39 11 -106 66 -106 88 0 8 52 11 165 11 185 0 184 0 165 68 -13 51 -51 97 -101 122 -47 25 -141 27 -184 4z m127 -44 c34 -10 98 -68 98 -90 0 -6 -55 -10 -135 -10 -86 0 -135 4 -135 10 0 24 37 64 75 81 47 22 49 22 97 9z"/>
            <path d="M6440 335 l0 -185 30 0 30 0 0 111 c0 160 25 201 122 203 39 1 43 3 46 29 3 26 2 27 -46 27 -36 0 -59 -7 -86 -25 l-36 -24 0 24 c0 21 -5 25 -30 25 l-30 0 0 -185z"/>
            <path d="M6855 504 c-101 -52 -139 -146 -96 -240 48 -106 196 -147 312 -86 30 15 55 35 57 44 5 24 -43 32 -73 12 -39 -25 -95 -35 -139 -23 -39 11 -106 66 -106 88 0 8 52 11 165 11 185 0 184 0 165 68 -13 51 -51 97 -101 122 -47 25 -141 27 -184 4z m127 -44 c34 -10 98 -68 98 -90 0 -6 -55 -10 -135 -10 -86 0 -135 4 -135 10 0 24 37 64 75 81 47 22 49 22 97 9z"/>
            <path d="M7365 504 c-101 -52 -139 -146 -96 -240 48 -106 196 -147 312 -86 30 15 55 35 57 44 5 24 -43 32 -73 12 -39 -25 -95 -35 -139 -23 -39 11 -106 66 -106 88 0 8 52 11 165 11 185 0 184 0 165 68 -13 51 -51 97 -101 122 -47 25 -141 27 -184 4z m127 -44 c34 -10 98 -68 98 -90 0 -6 -55 -10 -135 -10 -86 0 -135 4 -135 10 0 24 37 64 75 81 47 22 49 22 97 9z"/>
            <path d="M8075 507 c-16 -8 -47 -32 -67 -55 -106 -118 -14 -302 152 -302 49 0 120 27 135 50 12 20 25 10 25 -20 0 -27 3 -30 30 -30 l30 0 0 185 0 185 -30 0 c-27 0 -30 -3 -30 -30 0 -16 -3 -30 -6 -30 -3 0 -21 12 -41 27 -29 22 -48 28 -102 30 -40 2 -78 -2 -96 -10z m177 -65 c16 -9 38 -36 49 -59 17 -36 19 -48 10 -76 -34 -101 -166 -134 -243 -61 -44 44 -53 84 -29 139 35 79 132 105 213 57z"/>
            <path d="M8510 335 l0 -185 30 0 30 0 0 111 c0 123 13 166 56 190 40 21 93 15 123 -15 25 -25 26 -32 29 -156 l4 -130 29 0 29 0 0 128 c0 101 -4 134 -18 162 -39 79 -142 105 -216 55 l-36 -24 0 24 c0 21 -5 25 -30 25 l-30 0 0 -185z"/>
            <path d="M9091 505 c-72 -22 -131 -97 -131 -165 0 -36 23 -96 48 -123 65 -73 224 -76 287 -7 16 17 15 19 -9 35 -23 16 -26 15 -53 -5 -86 -63 -209 -2 -207 102 1 32 9 47 38 77 33 32 42 36 89 36 38 0 61 -6 83 -22 29 -20 32 -21 53 -6 l22 15 -22 24 c-22 23 -104 55 -138 53 -9 0 -36 -6 -60 -14z"/>
            <path d="M9515 504 c-101 -52 -139 -146 -96 -240 48 -106 196 -147 312 -86 30 15 55 35 57 44 5 24 -43 32 -73 12 -39 -25 -95 -35 -139 -23 -39 11 -106 66 -106 88 0 8 52 11 165 11 185 0 184 0 165 68 -13 51 -51 97 -101 122 -47 25 -141 27 -184 4z m127 -44 c34 -10 98 -68 98 -90 0 -6 -55 -10 -135 -10 -86 0 -135 4 -135 10 0 24 37 64 75 81 47 22 49 22 97 9z"/>
        </g>
    </symbol>
    <symbol viewBox="0 0 1440.1 1067" id="steam">
        <defs>
            <linearGradient id="steamGrad" x1="0%" y1="0%" x2="100%" y2="0%">
                <stop offset="0%" style="stop-color:rgb(0,168,212);stop-opacity:1"/>
                <stop offset="100%" style="stop-color:rgb(134,24,173);stop-opacity:1"/>
            </linearGradient>
        </defs>
        <g id="Calque_1">
            <g transform="translate(0.000000,1067.000000) scale(0.100000,-0.100000)">
                <path class="steam"
                      d="M7370,6874c-332-39-606-233-746-529c-51-108-73-187-81-298l-6-82l-222-315c-122-173-250-357-285-407l-64-93    h-79c-90,0-169-18-275-62l-74-31l-276,111c-153,61-434,175-627,252c-588,237-1361,549-1524,614l-153,61l-18,55    c-57,184-187,332-365,416c-114,53-177,68-290,67c-256-1-489-145-607-376c-53-102-71-182-72-307c0-198,55-332,199-476    c75-76,104-98,175-132c129-62,193-75,335-69c122,5,219,29,293,73l29,16l1298-519l1298-519l26-80c35-109,83-183,167-262    c136-129,276-184,469-184c125,0,201,18,320,80c106,55,228,182,283,293c23,47,49,119,58,159c8,41,16,75,17,76s196,143,433,316    l431,315l107,12c320,33,600,227,741,514c71,145,89,224,89,402c-1,134-4,159-28,240c-116,381-453,646-851,668    C7446,6875,7389,6876,7370,6874z"/>
                <g id="XMLID_00000117657527407350407920000011438508487554880135_">
                    <g>
                        <path class="steam1"
                              d="M8007,6250c73-123,90-337,39-485c-33-97-100-199-169-260c-64-56-184-119-268-142c-95-25-256-22-339,6      c-153,52-294,173-363,310c-97,193-88,421,24,607c40,66,144,167,214,209c125,73,323,96,474,55C7790,6502,7916,6405,8007,6250z"/>
                    </g>
                    <g/>
                </g>
                <g id="XMLID_00000124147219634807053700000009223730763113422476_">
                    <g>
                        <path class="steam1"
                              d="M6378,4493c7-172-29-269-145-386c-155-157-446-176-640-43c-47,32-141,141-131,151c3,3,50-15,105-39      c146-65,202-79,292-74c102,6,174,39,250,115c31,32,67,78,79,103c45,95,46,236,1,357c-16,42-38,74-83,118c-55,54-74,65-184,109      c-145,57-145,69-2,63c65-3,113-11,152-26c86-33,170-101,221-179C6360,4660,6372,4620,6378,4493z"/>
                    </g>
                    <g/>
                </g>
                <g id="XMLID_00000009571653770092940540000018223359799254720137_">
                    <g>
                        <path class="steam1"
                              d="M2690,6253c22-31,39-58,37-60c-2-1-48,15-103,37c-209,85-280,96-397,60c-109-34-194-109-245-217      c-24-52-27-69-27-163c0-93,3-111,27-163c56-118,125-175,290-239c59-22,108-45,108-50c0-4-40-8-89-8c-286,0-502,212-504,495      c-2,231,152,437,368,492c78,20,247,11,315-16C2551,6388,2644,6317,2690,6253z"/>
                    </g>
                    <g/>
                </g>
                <path class="steam" d="M7298,6431c-221-71-365-304-331-535c36-249,230-420,478-420c146,0,261,48,366,153c156,156,189,358,91,545    c-65,124-183,219-321,260C7507,6456,7371,6454,7298,6431z"/>
                <path class="steam" d="M8986,6466c-112-47-177-142-179-261c-4-181,87-267,314-298c59-9,120-22,138-31c55-29,76-98,46-155c-42-82-244-94-359-21    c-26,17-50,30-55,30c-4,0-32-28-61-61l-54-62l41-38c61-56,157-83,298-84c91,0,122,4,180,24c136,47,215,164,202,301    c-6,67-44,147-88,184c-62,53-122,73-264,91c-115,14-155,46-155,121c0,118,160,160,308,82l56-29l51,57c27,32,50,62,50,68    c0,14-69,58-125,81c-32,13-79,19-165,22C9055,6490,9040,6489,8986,6466z"/>
                <path class="steam" d="M9747,6483c-4-3-7-42-7-85v-78h135h135v-415v-415h105h105l2,413l3,412l123,3l123,3l-3,82l-3,82l-356,3    C9914,6489,9751,6487,9747,6483z"/>
                <path class="steam" d="M10770,5990v-500h330h330v85v85h-225h-225v125v125h200h201l-3,83l-3,82l-198,3l-198,2l3,118l3,117l223,3l222,2v85v85h-330    h-330V5990z"/>
                <path class="steam" d="M12082,6433c-12-32-44-119-71-193s-89-243-136-375c-48-132-98-269-111-305s-24-66-24-67c0-2,47-3,105-3c76,0,107,4,109,13    c2,6,16,47,31,90l27,77l165-2l166-3l30-87l30-88h104c57,0,103,3,103,7s-18,55-39,113c-22,58-97,263-166,455    c-70,193-134,367-142,388l-15,37h-73h-73L12082,6433z M12310,5838c0-5-54-8-121-8c-110,0-121,2-115,17c4,9,29,85,57,168    c27,82,52,157,55,165C12190,6192,12308,5865,12310,5838z"/>
                <path class="steam" d="M12890,5990v-500h105h105l2,285l3,285l87-182l86-183h62h63l101,182l101,181l3-284l2-284h90h90v500v500h-84    c-55,0-87-4-93-12c-6-7-68-127-139-265c-70-139-131-253-134-253c-4,0-34,62-67,138c-34,75-87,194-118,265l-58,127h-103h-104V5990z    "/>
                <path class="steam" d="M13950,6465c0-20,5-25,25-25c24,0,24-1,27-102l3-103l33-3l32-3v105v105l28,3c19,2,27,9,27,23c0,18-8,20-87,23l-88,3V6465z    "/>
                <path class="steam" d="M14160,6361v-131h30h30l1,68l1,67l12-40c17-56,38-56,72,2l29,48l3-72l3-73h30h30l-3,128l-3,127h-28c-26,0-32-7-55-62    c-15-35-30-63-33-63s-19,28-35,63c-24,51-34,63-56,65l-28,3V6361z"/>
            </g>
        </g>
        <g id="Calque_2">
            <g transform="translate(0.000000,1067.000000) scale(0.100000,-0.100000)">
                <g id="XMLID_00000037686653911162818460000011928635778084059274_">
                    <g>
                        <path class="st1"
                              d="M8026.3,6243.5c73-123,90-337,39-485c-33-97-100-199-169-260c-64-56-184-119-268-142c-95-25-256-22-339,6      c-153,52-294,173-363,310c-97,193-88,421,24,607c40,66,144,167,214,209c125,73,323,96,474,55      C7809.3,6495.5,7935.3,6398.5,8026.3,6243.5z"/>
                    </g>
                    <g/>
                </g>
                <g id="XMLID_00000023984472559203480870000001458636442579146166_">
                    <g>
                        <path class="st1"
                              d="M6397.3,4486.5c7-172-29-269-145-386c-155-157-446-176-640-43c-47,32-141,141-131,151c3,3,50-15,105-39      c146-65,202-79,292-74c102,6,174,39,250,115c31,32,67,78,79,103c45,95,46,236,1,357c-16,42-38,74-83,118c-55,54-74,65-184,109      c-145,57-145,69-2,63c65-3,113-11,152-26c86-33,170-101,221-179C6379.3,4653.5,6391.3,4613.5,6397.3,4486.5z"/>
                    </g>
                    <g/>
                </g>
                <g id="XMLID_00000009557625151240929500000001187893319170713256_">
                    <g>
                        <path class="st1"
                              d="M2709.3,6246.5c22-31,39-58,37-60c-2-1-48,15-103,37c-209,85-280,96-397,60c-109-34-194-109-245-217      c-24-52-27-69-27-163c0-93,3-111,27-163c56-118,125-175,290-239c59-22,108-45,108-50c0-4-40-8-89-8c-286,0-502,212-504,495      c-2,231,152,437,368,492c78,20,247,11,315-16C2570.3,6381.5,2663.3,6310.5,2709.3,6246.5z"/>
                    </g>
                    <g/>
                </g>
            </g>
        </g>
        <g id="Calque_3">
            <g transform="translate(0.000000,1067.000000) scale(0.100000,-0.100000)">
                <path d="M7315.3,6426.4c-221-71-365-304-331-535c36-249,230-420,478-420c146,0,261,48,366,153c156,156,189,358,91,545    c-65,124-183,219-321,260C7524.3,6451.4,7388.3,6449.4,7315.3,6426.4z"/>
            </g>
        </g>
    </symbol>
    <symbol viewBox="0 0 559.2672 600" id="mrWhite">
        <defs>
            <linearGradient id="mrWhiteGrad" x1="0%" y1="0%" x2="100%" y2="0%">
                <stop offset="0%" style="stop-color:rgb(0,168,212);stop-opacity:1"/>
                <stop offset="100%" style="stop-color:rgb(134,24,173);stop-opacity:1"/>
            </linearGradient>
        </defs>
        <g id="Calque_2">
            <g id="XMLID_00000099640234470732778880000015418408694138395557_">
                <g>
                    <path class="mrWhite0"
                          d="M532.08,176.18c6.3,13.1,7.8,20.6,7.3,36.2c-0.4,10.5-0.9,14.2-3.2,20.8c-5.2,15.2-15.3,28.9-28.2,38.1     c-8.1,5.8-14.8,8.8-26.9,12c-12.9,3.4-20.3,7.3-28.9,15.4c-35.8,33.6-57.9,79.2-62.7,129.5c-0.9,9.3-0.9,17.6,0.1,36.5     c1.1,22,1.1,25.2-0.4,30.8c-1.9,7.3-6.7,15.3-12.2,20.1c-12,10.6-57.9,24.1-81.8,24.1h-5.6v-50.6c0-32.7-0.4-51.2-1-52.5     c-0.6-1-2.4-2.6-4-3.4c-4.5-2.3-8.5-1.9-12.2,1.4l-3.3,2.9l-0.3,51.1l-0.3,51.1h-2.5c-1.5,0-7.4-0.7-13.3-1.6     c-28.9-4.2-59.8-15.5-70-25.7c-10.7-10.6-12.1-16.3-12.1-50.9c0-14.8-0.5-31.2-1.1-36.6c-5.1-47.4-26.8-91.9-60.3-123.9     c-10.8-10.4-17.1-13.9-31.4-17.7c-16.6-4.4-27.3-10.7-38.2-22.3c-7.9-8.4-12.4-15.9-16.2-26.4c-6.7-19.1-5.4-40.9,3.7-58.8     c12.5-24.8,36.1-40.4,63.4-41.8c19.4-1,36.4,4.2,51.2,15.8c4.2,3.3,8.1,3.7,10.7,1.1c1.5-1.5,2-4.1,2.5-12.3     c1.1-18.4,4.8-32.3,13.2-49.4c25.3-51.1,81.4-78.6,137.7-67.4c24.1,4.8,46.3,16.6,63.8,33.9c22.2,22.1,34.3,48,37.2,79.9     c1.1,12.9,2.3,16.1,5.8,16.1c0.9,0,5.3-2.4,9.8-5.4C460.88,120.98,512.08,134.98,532.08,176.18z"/>
                </g>
                <g>
                    <path class="mrWhite1"
                          d="M305.78,21.78c24.1,4.8,46.3,16.6,63.8,33.9c22.2,22.1,34.3,48,37.2,79.9c1.1,12.9,2.3,16.1,5.8,16.1     c0.9,0,5.3-2.4,9.8-5.4c38.5-25.3,89.7-11.3,109.7,29.9c6.3,13.1,7.8,20.6,7.3,36.2c-0.4,10.5-0.9,14.2-3.2,20.8     c-5.2,15.2-15.3,28.9-28.2,38.1c-8.1,5.8-14.8,8.8-26.9,12c-12.9,3.4-20.3,7.3-28.9,15.4c-35.8,33.6-57.9,79.2-62.7,129.5     c-0.9,9.3-0.9,17.6,0.1,36.5c1.1,22,1.1,25.2-0.4,30.8c-1.9,7.3-6.7,15.3-12.2,20.1c-12,10.6-57.9,24.1-81.8,24.1h-5.6v-50.6     c0-32.7-0.4-51.2-1-52.5c-0.6-1-2.4-2.6-4-3.4c-4.5-2.3-8.5-1.9-12.2,1.4l-3.3,2.9l-0.3,51.1l-0.3,51.1h-2.5     c-1.5,0-7.4-0.7-13.3-1.6c-28.9-4.2-59.8-15.5-70-25.7c-10.7-10.6-12.1-16.3-12.1-50.9c0-14.8-0.5-31.2-1.1-36.6     c-5.1-47.4-26.8-91.9-60.3-123.9c-10.8-10.4-17.1-13.9-31.4-17.7c-16.6-4.4-27.3-10.7-38.2-22.3c-7.9-8.4-12.4-15.9-16.2-26.4     c-6.7-19.1-5.4-40.9,3.7-58.8c12.5-24.8,36.1-40.4,63.4-41.8c19.4-1,36.4,4.2,51.2,15.8c4.2,3.3,8.1,3.7,10.7,1.1     c1.5-1.5,2-4.1,2.5-12.3c1.1-18.4,4.8-32.3,13.2-49.4C193.38,38.08,249.48,10.58,305.78,21.78z"/>
                </g>
            </g>
        </g>
        <g id="Calque_1">
            <g transform="translate(0.000000,600.000000) scale(0.100000,-0.100000)">
                <g id="XMLID_00000100384875057807908450000016802963603133168818_">
                    <g>
                        <path d="M5233.68,4650.25c440-352,482-1008,91-1404c-140-142-264-212-470-266c-117-30-159-57-263-167c-204-214-339-444-429-729      c-65-203-78-305-81-644c-2-167-8-329-15-365c-6-36-29-103-52-149c-82-171-217-266-518-365c-416-137-882-145-1306-22      c-138,40-311,110-390,158c-105,63-211,189-250,299c-30,88-36,138-35,328c1,368-24,574-95,790c-87,262-233,503-427,708      c-87,92-142,126-242,153c-216,58-343,129-483,271c-317,320-358,827-99,1208c85,127,262,268,412,330c214,89,481,95,690,16      c39-14,76-27,84-28c10-1,18,20,28,68c55,269,195,527,397,730c247,247,554,391,906,425c161,15,364-6,537-56      c506-146,906-582,1013-1102c11-51,16-62,29-56c136,57,260,78,423,71C4899.68,4844.25,5070.68,4780.25,5233.68,4650.25z       M5394.68,3878.25c5,156-10,231-73,362c-200,412-712,552-1097,299c-45-30-89-54-98-54c-35,0-47,32-58,161      c-29,319-150,578-372,799c-175,173-397,291-638,339c-563,112-1124-163-1377-674c-84-171-121-310-132-494c-5-82-10-108-25-123      c-26-26-65-22-107,11c-148,116-318,168-512,158c-273-14-509-170-634-418c-91-179-104-397-37-588c38-105,83-180,162-264      c109-116,216-179,382-223c143-38,206-73,314-177c335-320,552-765,603-1239c6-54,11-218,11-366c0-346,14-403,121-509      c102-102,411-215,700-257c59-9,118-16,133-16h25l3,511l3,511l33,29c37,33,77,37,122,14c16-8,34-24,40-34c6-13,10-198,10-525      v-506h56c239,0,698,135,818,241c55,48,103,128,122,201c15,56,15,88,4,308c-10,189-10,272-1,365c48,503,269,959,627,1295      c86,81,160,120,289,154c121,32,188,62,269,120c129,92,230,229,282,381C5385.68,3736.25,5390.68,3773.25,5394.68,3878.25z"/>
                        <path d="M5031.68,3426.25l-45-41c-25-22-76-56-115-75c-241-119-515-74-706,115c-128,128-181,253-182,435c-1,167,47,299,154,419      c57,63,72,72,39,24c-69-104-110-237-110-358c0-67,23-197,38-212c4-4,72,46,151,112c78,66,148,120,154,120c27,0,57-32,57-60      c0-24-22-46-150-155c-82-70-150-130-150-134c0-10,100-131,108-131c4,0,75,56,157,125c108,90,157,125,176,125c34,0,51-21,47-57      c-2-22-32-52-140-143c-135-113-137-115-117-132c12-10,58-30,102-44c150-48,324-35,469,36L5031.68,3426.25z"/>
                        <path d="M3922.68,4495.25c4,0,4-60,1-132c-7-172-38-294-112-443c-66-133-128-217-239-323c-161-152-326-238-551-288      c-58-13-123-17-235-17c-168,0-264,18-416,78c-195,78-394,238-514,415c-99,146-174,354-187,519c-8,110,9,106,48-11      c117-360,415-640,789-743c118-33,336-45,457-25c378,60,695,298,859,645c41,86,94,259,94,306      C3916.68,4487.25,3919.68,4495.25,3922.68,4495.25z"/>
                        <path d="M3631.68,3125.25c94,0,118-18,113-83l-3-42l-87-3c-86-3-88-3-88-27c0-23,4-24,63-27c54-3,62-5,62-23s-7-20-66-20      c-95,0-109,15-109,112c0,60,4,77,20,93S3569.68,3125.25,3631.68,3125.25z M3632.68,3035.25c62,0,65,1,62,23c-3,19-10,22-58,25      c-60,3-70-1-70-30C3566.68,3037.25,3575.68,3035.25,3632.68,3035.25z"/>
                        <path d="M3478.68,4529.25c170-119,88-374-120-374c-51,0-67,5-108,33c-68,46-97,103-92,184c5,77,41,135,108,171      C3330.68,4577.25,3418.68,4571.25,3478.68,4529.25z"/>
                        <path d="M3464.68,3161.25l3-60l-102-102c-93-93-129-116-129-80c0,6,43,54,95,106c74,74,95,101,95,122v28h-89c-90,0-108,7-97,36      c5,12,25,14,113,12l108-3L3464.68,3161.25z"/>
                        <path d="M3115.68,2945.25c26,0,36-17,21-35c-14-17-96-20-119-6c-19,12-6,41,19,41c18,0,20,6,20,65c0,61-2,66-25,75      c-14,5-25,16-25,25c0,11,11,15,45,15h45v-90C3096.68,2953.25,3098.68,2945.25,3115.68,2945.25z"/>
                        <path d="M3076.68,3225.25c16,0,24-30,11-43c-15-15-36,6-28,27C3063.68,3218.25,3070.68,3225.25,3076.68,3225.25z"/>
                        <path d="M2915.68,3004.25c3-82-7-113-34-102c-10,3-15,29-17,91l-3,87l-67,3l-68,3v-89c0-67-3-91-14-95c-30-12-36,16-36,158      c0,97,4,145,12,153c20,20,33,8,38-39l5-44l71-3C2898.68,3123.25,2910.68,3110.25,2915.68,3004.25z"/>
                        <path d="M2634.68,3095.25c2-74-2-135-8-151c-15-34-52-52-85-39c-14,5-35,6-47,1c-26-9-46-5-70,17c-16,13-18,34-18,152      c0,75,3,140,7,144c21,20,28-10,33-135c5-126,6-134,25-134c17,0,21,8,25,65c4,49,9,65,20,65s16-14,18-57c3-57,23-91,42-72      c5,5,11,68,12,139c3,122,4,130,23,130S2631.68,3212.25,2634.68,3095.25z"/>
                        <path d="M2444.68,4381.25c11-131-74-226-203-226c-127,0-211,90-203,216c5,78,41,136,107,171c30,15,61,23,96,23      C2348.68,4565.25,2435.68,4486.25,2444.68,4381.25z"/>
                        <path d="M2356.68,3066.25c0-33-22-36-45-8c-16,21-30,27-58,27h-37v-89c0-69-3-90-15-95c-8-3-19,3-25,14c-11,20-14,168-4,194      c5,12,21,16,75,16C2321.68,3125.25,2356.68,3106.25,2356.68,3066.25z"/>
                        <path d="M2065.68,3221.25c7-5,11-60,11-161c0-126-3-154-15-159c-25-9-35,28-35,135v103l-28-27c-15-15-32-27-37-27s-22,12-37,27      l-28,27v-110c0-110-8-138-36-127c-11,4-14,37-14,157c0,84,3,156,7,159c14,14,30,6,62-33c18-22,38-40,44-40s30,19,53,41      C2035.68,3209.25,2059.68,3224.25,2065.68,3221.25z"/>
                        <path d="M1544.68,4010.25c22-62,27-237,8-318c-65-279-317-477-605-477c-202,0-405,111-514,282c-35,54-81,157-74,164      c2,2,22-26,46-62c76-115,222-216,364-249c58-14,228-21,239-10c2,3-31,75-75,161c-85,168-90,196-40,215c19,7,31,6,47-5      c11-7,57-86,101-175c44-88,84-161,88-161c15,0,73,27,115,54l42,26l-85,170c-76,151-84,172-73,195c6,13,19,27,30,30      c42,14,58-5,137-162l77-156l37,51c80,109,120,234,120,377v89L1544.68,4010.25z"/>
                    </g>
                    <g/>
                </g>
            </g>
            <g id="Calque_2_00000043439822486251342800000015169352001507175846_"/>
            <g id="Calque_2_00000178901538259415686100000000294847387662555780_"/>
        </g>
    </symbol>
    <symbol viewBox="0 0 794 425" id="twitch">
        <defs>
            <linearGradient id="twitchGrad" x1="0%" y1="0%" x2="100%" y2="0%">
                <stop offset="0%" style="stop-color:rgb(0,168,212);stop-opacity:1"/>
                <stop offset="100%" style="stop-color:rgb(134,24,173);stop-opacity:1"/>
            </linearGradient>
        </defs>
        <g id="Calque_1_-_copie_3">
            <g transform="translate(0.000000,425.000000) scale(0.100000,-0.100000)">
                <path class="twitch0"
                      d="M5307,4098l-37-153v-712v-713h175h175v-100v-100l98,2l97,1l101,99l100,98h155h154l318,318l317,317v548v547    h-808h-808L5307,4098z"/>
                <g id="XMLID_00000082345852798790069990000002293266867782865546_">
                    <g/>
                    <g/>
                </g>
                <path class="twitch0" d="M5938,3545l-3-235h78h77v235v235h-75h-74L5938,3545z"/>
                <path class="twitch0" d="M6370,3545v-235h75h75v235v235h-75h-75V3545z"/>
                <path class="twitch0"
                      d="M1060,1497V714l188-185l187-185l284-170L2004,5h253h253v38c0,20,4,37,9,37s47-16,93-36l83-37l483-1l484-2    l57,66c31,36,69,80,84,98c15,19,28,32,28,30c1-2,7-46,13-98l11-94l310-1h310l7,90c5,49,9,93,10,97c2,3,53-37,114-91l110-97l274,1    l274,1l21,97l20,97l98-98l97-98l315,1h315l100,100l100,100V105V5l173,1c94,1,175,2,178,3c4,0,67,44,140,96l134,95l5-98l5-97l195,1    l195,1l290,194l290,195l3,589l2,590l-177,177l-178,178h-217h-218v175v175h-373h-372l-175-175l-175-175h-197h-198l-93-95    c-51-52-96-95-100-95s-7,43-7,95v95h-175h-175v175v175h-670h-670v-175v-175h-805h-805l-175,175l-175,175h-375h-375V1497z     M1650,1950v-180h175h175l1-42c1-36,0-308-1-370c0-16-15-18-175-18h-175v-195V950h175h175l1-90c0-49,1-110,1-135s-1-83-1-130    l-1-85h-252h-253l-137,137l-138,138v672v673h215h215V1950z M4360,2030v-100h-215h-215v100v100h215h215V2030z M4950,1950v-180h180    h180v-215v-215h-180h-180v-195V950h180h180l-2-217l-3-218l-255-3l-254-2l-138,137l-138,138v672v673h215h215V1950z M7000,1950v-180    h258h257l133-133l132-132v-498V510h-215h-215v415v415h-175h-175l-2-412l-3-413h-215h-215l-3,808l-2,807h220h220V1950z M2590,1360    V950h80h80v410v410h215h215v-410V950h80h80v410v410h215h215v-492V785l-137-137l-138-138h-667h-668v630v630h215h215V1360z     M4360,1140V510h-215h-215v630v630h215h215V1140z M6410,1555v-215h-255h-255v-195V950h255h255l-2-217l-3-218l-330-3l-329-2    l-143,142l-143,143v350v350l137,137l138,138h337h338V1555z"/>
            </g>
        </g>
        <g id="Calque_1_-_copie_2">
            <g transform="translate(0.000000,425.000000) scale(0.100000,-0.100000)">
                <path class="twitch1"
                      d="M5307,4098l-37-153v-712v-713h175h175v-100v-100l98,2l97,1l101,99l100,98h155h154l318,318l317,317v548v547    h-808h-808L5307,4098z"/>
                <g id="XMLID_00000120532220752666081410000008698084744123442099_">
                    <g>
                        <path class="twitch3"
                              d="M6800,3658v-433l-137-137l-138-138h-216h-216l-116-115c-64-63-119-115-122-115c-2,0-4,52-2,115l2,115h-177      h-178v570v570h650h650V3658z"/>
                    </g>
                    <g/>
                </g>
                <path class="twitch1" d="M5938,3545l-3-235h78h77v235v235h-75h-74L5938,3545z"/>
                <path class="twitch1" d="M6370,3545v-235h75h75v235v235h-75h-75V3545z"/>
                <path class="twitch1"
                      d="M1060,1497V714l188-185l187-185l284-170L2004,5h253h253v38c0,20,4,37,9,37s47-16,93-36l83-37l483-1l484-2    l57,66c31,36,69,80,84,98c15,19,28,32,28,30c1-2,7-46,13-98l11-94l310-1h310l7,90c5,49,9,93,10,97c2,3,53-37,114-91l110-97l274,1    l274,1l21,97l20,97l98-98l97-98l315,1h315l100,100l100,100V105V5l173,1c94,1,175,2,178,3c4,0,67,44,140,96l134,95l5-98l5-97l195,1    l195,1l290,194l290,195l3,589l2,590l-177,177l-178,178h-217h-218v175v175h-373h-372l-175-175l-175-175h-197h-198l-93-95    c-51-52-96-95-100-95s-7,43-7,95v95h-175h-175v175v175h-670h-670v-175v-175h-805h-805l-175,175l-175,175h-375h-375V1497z"/>
                <g id="XMLID_00000005965270348289106040000016284276702760233390_">
                    <g>
                        <polygon class="twitch3"
                                 points="7780,1007 7780,510 7565,510 7350,510 7350,925 7350,1340 7175,1340 7000,1340 6998,928 6995,515       6780,515 6565,515 6562,1323 6560,2130 6780,2130 7000,2130 7000,1950 7000,1770 7258,1770 7515,1770 7648,1637 7780,1505           "/>
                    </g>
                    <g/>
                </g>
                <g id="XMLID_00000134241040276587489930000001334621808665393827_">
                    <g>
                        <polygon class="twitch3"
                                 points="6410,1555 6410,1340 6155,1340 5900,1340 5900,1145 5900,950 6155,950 6410,950 6408,733 6405,515       6075,512 5746,510 5603,652 5460,795 5460,1145 5460,1495 5597,1632 5735,1770 6072,1770 6410,1770     "/>
                    </g>
                    <g/>
                </g>
                <g id="XMLID_00000056401018426519279260000016872677860724354688_">
                    <g>
                        <polygon class="twitch3"
                                 points="5310,1555 5310,1340 5130,1340 4950,1340 4950,1145 4950,950 5130,950 5310,950 5308,733 5305,515       5050,512 4796,510 4658,647 4520,785 4520,1457 4520,2130 4735,2130 4950,2130 4950,1950 4950,1770 5130,1770 5310,1770     "/>
                    </g>
                    <g/>
                </g>
                <g id="XMLID_00000057857986356706663520000010692006959359823032_">
                    <g>
                        <polygon class="twitch3"
                                 points="4360,2030 4360,1930 4145,1930 3930,1930 3930,2030 3930,2130 4145,2130 4360,2130     "/>
                    </g>
                    <g/>
                </g>
                <g id="XMLID_00000183246887213990718240000011261297294855095945_">
                    <g>
                        <polygon class="twitch3"
                                 points="3770,1278 3770,785 3633,648 3495,510 2828,510 2160,510 2160,1140 2160,1770 2375,1770 2590,1770       2590,1360 2590,950 2670,950 2750,950 2750,1360 2750,1770 2965,1770 3180,1770 3180,1360 3180,950 3260,950 3340,950       3340,1360 3340,1770 3555,1770 3770,1770     "/>
                    </g>
                    <g/>
                </g>
                <g id="XMLID_00000078026960482124790730000015874174465794902662_">
                    <g>
                        <path class="twitch3"
                              d="M2001,860c0-49,1-110,1-135s-1-83-1-130l-1-85h-252h-253l-137,137l-138,138v672v673h215h215v-180v-180h175      h175l1-42c1-36,0-308-1-370c0-16-15-18-175-18h-175v-195V950h175h175L2001,860z"/>
                    </g>
                    <g/>
                </g>
                <g id="XMLID_00000001646206978513245350000014228360073295833510_">
                    <g>
                        <polygon class="twitch3"
                                 points="4360,1140 4360,510 4145,510 3930,510 3930,1140 3930,1770 4145,1770 4360,1770     "/>
                    </g>
                    <g/>
                </g>
            </g>
        </g>
        <g id="Calque_1">
            <g transform="translate(0.000000,425.000000) scale(0.100000,-0.100000)">
                <path class="twitch1"
                      d="M5307,4098l-37-153v-712v-713h175h175v-100v-100l98,2l97,1l101,99l100,98h155h154l318,318l317,317v548v547    h-808h-808L5307,4098z"/>
                <g id="XMLID_00000039127094990101640750000004398698399983679880_">
                    <g/>
                    <g/>
                </g>
                <path class="twitch0" d="M5938,3545l-3-235h78h77v235v235h-75h-74L5938,3545z"/>
                <path class="twitch0" d="M6370,3545v-235h75h75v235v235h-75h-75V3545z"/>
                <path class="twitch1"
                      d="M1060,1497V714l188-185l187-185l284-170L2004,5h253h253v38c0,20,4,37,9,37s47-16,93-36l83-37l483-1l484-2    l57,66c31,36,69,80,84,98c15,19,28,32,28,30c1-2,7-46,13-98l11-94l310-1h310l7,90c5,49,9,93,10,97c2,3,53-37,114-91l110-97l274,1    l274,1l21,97l20,97l98-98l97-98l315,1h315l100,100l100,100V105V5l173,1c94,1,175,2,178,3c4,0,67,44,140,96l134,95l5-98l5-97l195,1    l195,1l290,194l290,195l3,589l2,590l-177,177l-178,178h-217h-218v175v175h-373h-372l-175-175l-175-175h-197h-198l-93-95    c-51-52-96-95-100-95s-7,43-7,95v95h-175h-175v175v175h-670h-670v-175v-175h-805h-805l-175,175l-175,175h-375h-375V1497z     M1650,1950v-180h175h175l1-42c1-36,0-308-1-370c0-16-15-18-175-18h-175v-195V950h175h175l1-90c0-49,1-110,1-135s-1-83-1-130    l-1-85h-252h-253l-137,137l-138,138v672v673h215h215V1950z M4360,2030v-100h-215h-215v100v100h215h215V2030z M4950,1950v-180h180    h180v-215v-215h-180h-180v-195V950h180h180l-2-217l-3-218l-255-3l-254-2l-138,137l-138,138v672v673h215h215V1950z M7000,1950v-180    h258h257l133-133l132-132v-498V510h-215h-215v415v415h-175h-175l-2-412l-3-413h-215h-215l-3,808l-2,807h220h220V1950z M2590,1360    V950h80h80v410v410h215h215v-410V950h80h80v410v410h215h215v-492V785l-137-137l-138-138h-667h-668v630v630h215h215V1360z     M4360,1140V510h-215h-215v630v630h215h215V1140z M6410,1555v-215h-255h-255v-195V950h255h255l-2-217l-3-218l-330-3l-329-2    l-143,142l-143,143v350v350l137,137l138,138h337h338V1555z"/>
            </g>
        </g>
    </symbol>
    <symbol viewBox="0 0 999.68164 154.58691" id="blizzard">
        <defs>
            <linearGradient id="blizzardGrad" x1="0%" y1="0%" x2="100%" y2="0%">
                <stop offset="0%" style="stop-color:rgb(0,168,212);stop-opacity:1"/>
                <stop offset="100%" style="stop-color:rgb(134,24,173);stop-opacity:1"/>
            </linearGradient>
        </defs>
        <g id="blizzard1">
            <g transform="translate(0.000000,1080.000000) scale(0.100000,-0.100000)">
                <path d="M513.8,10791c-94-35-150-134-168-300l-12-105l-70-22c-39-11-97-34-128-51c-62-33-145-104-135-114c4-4,34,7,67,25    c51,27,226,81,264,81c6,0,21-48,33-112c36-189,118-403,207-542c20-32,35-60,33-62c-2-3-29-10-58-16c-66-14-101,0-136,51    c-26,39-30,114-9,191c10,41,9,52-14,117c-14,40-28,75-31,78c-11,11-109-201-129-279c-37-147-22-254,46-318c77-72,207-66,376,17    l56,28l64-55c76-67,146-110,212-132c64-22,84-6,29,22c-53,27-121,86-182,155l-51,58l63,52c155,128,291,293,385,467l38,70l31-33    c41-43,53-69,53-113c0-29-8-44-37-74c-34-33-131-80-167-80c-8,0-37-28-65-62l-51-63l77-3c188-7,369,54,446,150    c39,49,48,127,22,195c-22,57-129,167-199,203c-44,23-47,27-41,55c27,125,35,197,30,245c-7,64-23,120-34,120c-5,0-11-42-14-92    c-6-115-51-263-76-254c-9,2-55,19-103,36c-164,58-400,96-559,88l-76-3l7,30c19,82,61,125,123,125c50,0,96-22,156-76    c40-36,60-46,122-59c41-8,75-15,77-15c26,0-99,183-178,261C704.8,10778,595.8,10820,513.8,10791z M758.8,10299c52-9,130-27,174-41    c86-27,255-102,255-113c0-3-28-49-62-101c-40-61-101-134-177-210c-111-111-232-204-255-196c-18,6-100,176-134,278    c-37,113-62,247-62,335v64h83C626.8,10315,706.8,10308,758.8,10299z"/>
                <path d="M7214.8,10404c-44-26-47-50-47-398c0-380-9-351,104-351c104,0,96-19,96,236c0,123,4,224,8,224c9,0,75-54,359-296    c104-89,200-167,212-174c31-16,83-5,110,23c21,23,21,26,19,373l-3,349l-92,3l-93,3l-2-236l-3-235l-288,245    c-264,225-291,245-325,245C7249.8,10415,7224.8,10410,7214.8,10404z"/>
                <path d="M1927.8,10031v-366h348c346,0,349,0,393,23c126,67,148,251,39,323l-37,25l39,38c37,37,38,41,38,108c0,90-34,148-106,184    c-48,24-54,24-381,27l-333,3V10031z M2546.8,10221c27-24,27-68,0-92c-19-17-41-19-220-22l-199-3v71v72l199-4    C2505.8,10240,2527.8,10238,2546.8,10221z M2571.8,9935c29-30,30-67,2-94l-25-26h-211h-210v71v70l215-3    C2516.8,9951,2559.8,9947,2571.8,9935z"/>
                <path d="M3199.8,10379c-21-14-362-678-362-704c0-6,38-10,95-10h95l37,75l37,75h237h237l35-75l36-75h90c49,0,92,4,96,9    c9,15-331,687-357,705c-17,12-49,16-138,16S3216.8,10391,3199.8,10379z M3429.8,10110c37-71,67-133,68-137c0-5-72-8-160-8    s-160,2-160,5c0,9,121,249,133,263c6,7,20,12,31,10C3357.8,10241,3379.8,10207,3429.8,10110z"/>
                <path d="M3667.8,10383c0-7,15-40,33-73l32-60l123-3l122-3v-252c0-181,4-258,13-274c17-30,152-143,171-143c14,0,16,34,16,335v334    l113,3l112,3v70v70l-367,3C3744.8,10395,3667.8,10393,3667.8,10383z"/>
                <path d="M4487.8,10390c0-3,16-37,35-75l35-70h100h100v-264v-265l80-70c44-39,87-71,95-71c13,0,15,45,15,335v335h145h146l-3,73    l-3,72l-372,3C4655.8,10394,4487.8,10393,4487.8,10390z"/>
                <path d="M5331.8,10382c-3-8-4-144-2-304l3-290l28-41c15-23,45-51,67-62c38-19,55-20,337-18l298,3v70v70l-256,3    c-198,2-259,5-268,15c-7,9-12,108-13,288l-3,274l-93,3C5358.8,10395,5335.8,10393,5331.8,10382z"/>
                <path d="M6165.8,10366l-33-29v-269c0-260,1-269,23-311c13-24,41-54,65-70l42-27l353-3c261-2,357,0,368,9c18,14,19,120,2,137    c-9,9-94,12-323,12s-314,3-323,12c-7,7-12,38-12,70v58h200c187,0,201,1,220,20c30,30,27,83-6,109c-25,20-40,21-220,21h-194v70v70    l333,2l332,3v70v70l-397,3l-397,2L6165.8,10366z"/>
                <path d="M8256.8,10366l-29-29v-264c0-234,2-268,19-303c22-50,69-91,119-105c22-6,175-10,380-10h343l-3,78l-3,77l-325,5    c-179,3-326,7-327,8c-2,1-3,29-3,62v60h266c270,0,293,3,321,39c20,26,15,70-12,96l-24,25h-276h-275v70v70h330h331l-3,73l-3,72    l-398,3l-398,2L8256.8,10366z"/>
                <path d="M9167.8,10390c0-3,16-37,35-75l35-70h125h125v-256c0-140,4-263,9-273c17-31,161-143,176-137c13,5,15,54,15,335v330l153,3    l152,3v70v70l-412,3C9353.8,10394,9167.8,10393,9167.8,10390z"/>
                <path d="M6903.8,10091c-37-35-44-62-25-99c32-62,107-76,152-29c39,41,37,88-6,130S6948.8,10134,6903.8,10091z"/>
            </g>
        </g>
        <g id="blizzard2">
            <g transform="translate(0.000000,1080.000000) scale(0.100000,-0.100000)">
                <path d="M509.8,10797.6c-94-35-150-134-168-300l-12-105l-70-22c-39-11-97-34-128-51c-62-33-145-104-135-114c4-4,34,7,67,25    c51,27,226,81,264,81c6,0,21-48,33-112c36-189,118-403,207-542c20-32,35-60,33-62c-2-3-29-10-58-16c-66-14-101,0-136,51    c-26,39-30,114-9,191c10,41,9,52-14,117c-14,40-28,75-31,78c-11,11-109-201-129-279c-37-147-22-254,46-318c77-72,207-66,376,17    l56,28l64-55c76-67,146-110,212-132c64-22,84-6,29,22c-53,27-121,86-182,155l-51,58l63,52c155,128,291,293,385,467l38,70l31-33    c41-43,53-69,53-113c0-29-8-44-37-74c-34-33-131-80-167-80c-8,0-37-28-65-62l-51-63l77-3c188-7,369,54,446,150    c39,49,48,127,22,195c-22,57-129,167-199,203c-44,23-47,27-41,55c27,125,35,197,30,245c-7,64-23,120-34,120c-5,0-11-42-14-92    c-6-115-51-263-76-254c-9,2-55,19-103,36c-164,58-400,96-559,88l-76-3l7,30c19,82,61,125,123,125c50,0,96-22,156-76    c40-36,60-46,122-59c41-8,75-15,77-15c26,0-99,183-178,261C700.8,10784.6,591.8,10826.6,509.8,10797.6z M754.8,10305.6    c52-9,130-27,174-41c86-27,255-102,255-113c0-3-28-49-62-101c-40-61-101-134-177-210c-111-111-232-204-255-196    c-18,6-100,176-134,278c-37,113-62,247-62,335v64h83C622.8,10321.6,702.8,10314.6,754.8,10305.6z"/>
                <path d="M6899.8,10097.6c-37-35-44-62-25-99c32-62,107-76,152-29c39,41,37,88-6,130S6944.8,10140.6,6899.8,10097.6z"/>
            </g>
        </g>
    </symbol>
    <symbol viewBox="0 0 5000 1440.7999" id="discord">
        <defs>
            <linearGradient id="discordGrad" x1="0%" y1="0%" x2="100%" y2="0%">
                <stop offset="0%" style="stop-color:rgb(0,168,212);stop-opacity:1"/>
                <stop offset="100%" style="stop-color:rgb(134,24,173);stop-opacity:1"/>
            </linearGradient>
        </defs>
        <g transform="translate(0.000000,1441.000000) scale(0.100000,-0.100000)" class="discord" stroke="none">
            <path d="M1250 14395 c-318 -54 -589 -194 -815 -420 -207 -207 -338 -448 -412 -755 -17 -72 -18 -306 -21 -5125 -2 -4428 -1 -5062 12 -5145 49 -310 194 -596 417 -819 235 -235 521 -379 846 -426 97 -14 546 -15 4284 -13 l4176 3 -188 650 c-104 357 -187 650 -186 651 1 1 142 -126 312 -284 1142 -1052 1566 -1434 2268 -2042 423 -366 773 -667 778 -668 14 -5 12 12978 -2 13093 -31 253 -134 508 -292 721 -70 95 -226 247 -324 317 -160 114 -361 203 -573 254 -72 17 -304 18 -5140 19 -4092 2 -5079 0 -5140 -11z m4020 -3394 l31 -40 -103 -31 c-544 -163 -1087 -411 -1487 -679 -121 -81 -293 -214 -299 -231 -2 -5 67 25 154 66 616 296 1201 482 1769 563 428 62 715 84 1085 83 936 0 1823 -211 2670 -634 95 -48 176 -86 177 -84 7 6 -99 92 -217 176 -357 255 -889 514 -1408 686 -195 64 -183 50 -108 132 36 38 55 40 251 17 578 -67 1181 -302 1699 -664 l110 -76 87 -180 c566 -1168 906 -2517 948 -3760 l9 -250 -31 -44 c-92 -134 -271 -318 -442 -453 -439 -348 -1065 -568 -1675 -590 l-65 -2 -232 280 c-127 153 -232 282 -232 286 -1 3 50 23 112 44 340 113 637 277 884 488 138 118 317 316 300 332 -2 3 -36 -15 -73 -39 -359 -232 -893 -461 -1389 -596 -649 -178 -1319 -225 -1989 -140 -521 66 -1053 214 -1561 434 -183 79 -493 243 -603 318 -24 16 -46 26 -49 23 -9 -9 74 -113 167 -210 246 -255 579 -461 973 -601 l118 -42 -133 -164 c-73 -91 -180 -222 -238 -293 l-105 -128 -112 6 c-708 39 -1361 310 -1817 755 -116 114 -215 228 -262 303 l-24 37 10 263 c28 743 144 1450 365 2213 156 538 385 1136 605 1576 l68 135 109 76 c308 215 663 393 1017 510 284 94 631 162 843 167 60 1 62 0 93 -38z"/>
            <path d="M4928 8360 c-314 -57 -546 -296 -614 -631 -22 -109 -15 -292 16 -399 39 -135 103 -244 205 -346 100 -101 178 -151 303 -192 66 -22 96 -26 202 -26 142 -1 221 18 345 82 103 53 247 200 302 307 71 140 103 268 103 415 0 372 -229 686 -565 775 -72 19 -231 27 -297 15z"/>
            <path d="M7560 8356 c-286 -62 -504 -277 -580 -571 -149 -578 311 -1119 858 -1010 153 31 319 132 416 254 138 172 195 353 183 584 -11 217 -83 383 -232 533 -100 102 -181 152 -303 191 -97 31 -248 39 -342 19z"/>
            <path d="M24940 10474 c-1077 -95 -1852 -661 -2034 -1484 -45 -208 -57 -415 -36 -631 57 -571 333 -1042 805 -1371 325 -226 675 -359 1167 -443 322 -55 522 -112 701 -201 163 -80 268 -170 324 -276 25 -47 28 -64 28 -144 0 -84 -2 -95 -38 -166 -106 -215 -380 -329 -752 -314 -455 18 -882 202 -1193 514 l-92 93 -473 -442 c-259 -243 -489 -459 -510 -479 l-39 -37 78 -94 c286 -347 690 -662 1070 -832 335 -150 612 -215 961 -224 683 -18 1346 185 1858 570 113 85 328 305 407 417 132 187 233 415 278 632 44 211 50 523 15 765 -86 596 -395 1022 -944 1302 -293 150 -600 248 -1081 346 -243 50 -286 60 -430 107 -361 117 -555 300 -555 523 0 246 179 450 460 527 118 32 359 32 504 0 284 -63 533 -193 764 -397 62 -55 102 -83 110 -78 44 27 1037 796 1037 803 0 22 -204 241 -325 351 -402 363 -863 573 -1416 644 -118 16 -548 28 -649 19z"/>
            <path d="M30230 10458 c-574 -59 -1082 -253 -1465 -558 -427 -341 -679 -792 -745 -1340 -6 -54 -10 -549 -10 -1357 0 -1077 2 -1290 15 -1390 127 -986 898 -1676 2070 -1850 93 -13 184 -17 405 -17 251 -1 300 2 414 22 731 127 1324 507 1726 1107 92 137 174 285 164 295 -10 9 -1359 629 -1386 637 -12 4 -25 -11 -49 -59 -48 -95 -92 -158 -161 -227 -240 -243 -631 -336 -1004 -240 -44 11 -131 45 -194 76 -101 50 -126 68 -200 142 -54 54 -98 109 -118 147 -65 125 -62 58 -62 1366 l0 1187 25 80 c71 224 285 397 586 472 107 26 334 36 448 20 177 -26 349 -88 471 -171 89 -60 201 -170 258 -253 36 -53 51 -68 67 -64 22 5 1287 516 1294 523 7 6 -69 159 -136 274 -395 678 -1015 1084 -1792 1175 -138 16 -480 18 -621 3z"/>
            <path d="M35502 10455 c-719 -82 -1306 -342 -1707 -756 -291 -300 -450 -618 -532 -1059 -16 -87 -18 -207 -21 -1365 -3 -1323 -2 -1380 39 -1594 180 -932 1034 -1595 2229 -1732 149 -17 600 -18 745 -1 870 103 1554 472 1937 1047 160 240 267 538 310 860 19 144 19 2555 0 2695 -34 248 -87 431 -186 635 -201 416 -530 733 -1001 965 -309 152 -610 241 -995 295 -162 23 -652 29 -818 10z m618 -1481 c411 -63 690 -266 761 -554 11 -45 14 -272 14 -1220 l0 -1165 -22 -70 c-82 -259 -326 -435 -709 -512 -124 -25 -450 -25 -584 0 -128 24 -300 83 -396 138 -163 92 -286 247 -319 407 -22 101 -22 2304 0 2407 77 365 516 611 1050 588 61 -2 153 -11 205 -19z"/>
            <path d="M14787 10384 c-4 -4 -7 -606 -7 -1339 l0 -1331 791 -712 c435 -392 795 -712 800 -712 5 0 9 550 9 1296 l0 1296 498 -5 c460 -5 504 -7 596 -27 286 -62 453 -209 516 -456 19 -75 20 -115 20 -1178 0 -1230 3 -1176 -71 -1325 -57 -115 -143 -201 -259 -259 -112 -55 -215 -80 -380 -92 -76 -6 -652 -10 -1327 -10 l-1193 0 0 -755 0 -756 1378 4 c1354 3 1379 3 1514 25 585 92 1008 277 1364 596 261 236 464 593 543 956 51 238 51 242 51 1578 0 1039 -2 1268 -15 1374 -94 802 -578 1383 -1390 1668 -183 64 -440 120 -695 151 -107 13 -2730 25 -2743 13z"/>
            <path d="M20490 7205 l0 -3185 805 0 805 0 0 3185 0 3185 -805 0 -805 0 0 -3185z"/>
            <path d="M45151 9048 l0 -1343 785 -705 c432 -388 789 -706 794 -708 6 -2 10 477 10 1292 l0 1296 393 0 c607 0 741 -15 916 -101 152 -75 265 -215 308 -385 17 -64 18 -151 18 -1184 l0 -1115 -23 -78 c-35 -121 -76 -193 -157 -275 -90 -89 -207 -149 -360 -183 l-100 -23 -1297 -3 -1298 -4 0 -755 0 -754 1313 0 c1349 0 1426 2 1667 41 700 115 1244 431 1565 909 114 171 220 420 265 628 50 227 50 238 50 1582 0 1345 0 1353 -50 1585 -51 235 -174 519 -304 700 -319 444 -830 742 -1481 864 -291 55 -259 54 -1687 58 l-1328 4 1 -1343z"/>
            <path d="M39360 7200 l0 -3180 815 0 815 0 0 1005 0 1005 143 0 142 0 733 -1005 734 -1005 1011 0 1010 0 -20 23 c-59 66 -1700 2144 -1700 2152 0 6 34 22 76 38 243 88 499 262 658 446 310 361 470 844 490 1476 15 483 -86 925 -290 1268 -277 465 -754 771 -1397 896 -286 56 -231 54 -1782 58 l-1438 4 0 -3181z m2761 1657 c227 -54 392 -181 484 -372 24 -49 50 -120 59 -156 20 -83 21 -263 1 -347 -61 -259 -248 -451 -511 -524 -76 -21 -98 -22 -621 -26 l-543 -3 0 726 0 727 533 -5 c433 -4 544 -8 598 -20z"/>
        </g>
    </symbol>
    <symbol viewBox="0 0 225 225" id="hl">
        <defs>
            <linearGradient id="hl2" x1="0%" y1="0%" x2="100%" y2="0%">
                <stop offset="0%" style="stop-color:rgb(0,212,160);stop-opacity:1"/>
                <stop offset="100%" style="stop-color:rgb(8,20,50);stop-opacity:1"/>
            </linearGradient>
            <linearGradient id="hl1" x1="0%" y1="0%" x2="100%" y2="0%">
                <stop offset="0%" style="stop-color:rgb(0,168,212);stop-opacity:1"/>
                <stop offset="100%" style="stop-color:rgb(134,24,173);stop-opacity:1"/>
            </linearGradient>
        </defs>
        <g id="Calque_2">
            <polygon class="bg-hl" points="199.9,162.8 112.5,213.5 25.1,162.8 25.1,61.4 112.5,10.7 199.9,61.4 	"/>
        </g>
        <g id="Calque_1" class="hl">
            <g transform="translate(0.000000,225.000000) scale(0.100000,-0.100000)">
                <path d="M1102,2178c-16-16-407-245-587-344c-60-33-197-112-267-155l-38-23v-526V605l43-27c34-22,186-110,395-229
			c18-11,102-59,185-108c84-48,184-106,223-128l71-41l73,44c40,24,73,44,75,44c1,0,135,77,296,171c162,94,333,193,382,221l87,49v528
			v527l-57,31c-81,43-349,199-381,221c-15,11-97,59-182,107s-188,108-227,132C1110,2196,1118,2194,1102,2178z M1145,2080
			c6-10,270-170,281-170c3,0,29-15,57-33c74-48,292-167,306-167c6,0,11-4,11-8c0-5,36-28,80-53l80-44v-480V645l-33-19
			c-17-10-81-47-142-81c-60-34-168-97-239-139c-72-43-153-90-180-106c-28-15-94-53-147-83l-97-54L706,402L290,642v483v483l178,101
			c97,55,224,128,282,163c57,35,134,79,170,99c36,21,95,55,130,78C1117,2091,1135,2097,1145,2080z"/>
                <path d="M1095,2000c-11-4-49-26-85-49c-36-22-108-63-160-91s-107-62-122-75l-28-24v-316c0-261,3-319,14-331c9-9,36-14,74-14
			c84,0,92,11,92,132v96l38,41c44,47,82,53,142,23c71-35,70-26,70-599c0-281,3-518,6-527s15-16,26-16c28,0,398,211,406,231
			c2,5,13,9,23,9c11,0,46,18,79,39c32,22,69,43,82,47c12,4,34,14,48,24c14,9,42,28,62,41c29,18,38,31,38,52c0,41-29,47-216,47
			c-162,0-165,0-189-25c-14-13-25-28-25-32c0-19-60-43-107-43c-42,0-53,5-81,33l-32,33l-2,619l-3,619l-43,33
			C1158,2010,1132,2016,1095,2000z"/>
                <path d="M1513,1763c-20-7-19-836,1-852c9-8,70-11,197-9l184,3l3,331l2,330l-49,32c-27,18-51,32-55,32c-3,0-37,20-75,44
			C1596,1755,1545,1776,1513,1763z"/>
                <path d="M387,1588c-15-5-29-19-32-31s-4-217-3-456c3-418,4-434,22-445c11-6,29-19,40-28c11-10,29-21,40-24c12-4,23-10,26-14
			s37-24,75-45c39-21,113-64,165-95s103-60,114-64c43-15,46,2,46,268c0,240-1,253-20,274c-25,27-103,30-138,6c-20-14-22-23-22-113
			v-98l-38-43c-34-39-41-42-88-43c-31,0-59,5-73,15c-51,36-51,40-51,493c0,233-3,430-6,439C437,1602,427,1603,387,1588z"/>
            </g>
        </g>
    </symbol>
    <symbol viewBox="0 0 553.0117 170.38937" id="gr">
        <defs>
            <linearGradient id="grGrad1" x1="0%" y1="0%" x2="100%" y2="0%">
                <stop offset="0%" style="stop-color:rgb(0,168,212);stop-opacity:1"/>
                <stop offset="100%" style="stop-color:rgb(134,24,173);stop-opacity:1"/>
            </linearGradient>
            <linearGradient id="grGrad2" x1="0%" y1="0%" x2="100%" y2="0%">
                <stop offset="0%" style="stop-color:rgb(192,49,201);stop-opacity:1"/>
                <stop offset="33%" style="stop-color:rgb(70,51,133);stop-opacity:1"/>
                <stop offset="66%" style="stop-color:rgb(66,61,163);stop-opacity:1"/>
                <stop offset="100%" style="stop-color:rgb(45,195,166);stop-opacity:1"/>
            </linearGradient>
        </defs>
        <g transform="translate(0.000000,175.000000) scale(0.100000,-0.100000)" stroke="none">
            <path d="M2595 1689 c-132 -20 -252 -111 -295 -226 -76 -203 2 -408 188 -496 63 -30 73 -32 182 -32 108 0 119 2 180 31 36 17 80 43 98 58 l32 28 0 139 0 139 -110 0 -110 0 0 -45 0 -45 55 0 56 0 -3 -77 -3 -77 -59 -31 c-123 -63 -283 -31 -361 73 -150 195 -19 472 223 472 74 0 121 -16 179 -60 l48 -37 37 21 c21 12 38 26 38 32 0 12 -41 51 -85 81 -68 47 -186 68 -290 52z"/>
            <path d="M3342 1663 c-19 -35 -302 -705 -302 -714 0 -5 26 -9 58 -9 l58 0 33 80 33 80 187 0 187 0 33 -80 33 -80 59 0 c33 0 59 4 59 8 0 5 -22 60 -49 123 l-50 114 -211 3 c-196 2 -212 4 -206 20 32 84 141 342 146 342 3 0 32 -65 65 -145 l59 -145 58 0 c50 0 57 2 51 17 -4 10 -43 103 -88 208 l-81 190 -61 3 c-51 2 -63 0 -71 -15z"/>
            <path d="M3840 1310 l0 -370 55 0 55 0 2 286 3 286 120 -284 c110 -260 123 -283 146 -286 25 -3 30 8 150 292 l124 294 3 -294 2 -294 50 0 50 0 0 370 0 370 -73 0 -73 0 -113 -271 c-63 -148 -118 -266 -122 -262 -4 4 -58 125 -118 268 l-110 260 -75 3 -76 3 0 -371z"/>
            <path d="M4680 1555 l0 -125 55 0 55 0 0 80 0 80 205 0 205 0 0 45 0 45 -260 0 -260 0 0 -125z"/>
            <path d="M5355 1664 c-22 -7 -41 -14 -43 -14 -2 0 -12 -19 -22 -42 -13 -28 -20 -66 -20 -105 l0 -63 100 0 100 0 0 25 c0 25 -1 25 -80 25 l-80 0 0 41 c0 52 42 99 90 99 22 0 41 -9 61 -29 26 -27 29 -36 29 -95 0 -61 2 -66 21 -66 21 0 21 4 17 78 -5 82 -21 120 -61 140 -40 19 -71 21 -112 6z"/>
            <path d="M1075 1645 c-40 -39 -32 -96 17 -121 52 -27 108 6 108 65 0 42 -7 54 -37 70 -34 17 -62 13 -88 -14z"/>
            <path d="M400 1441 c0 -27 5 -51 10 -53 6 -2 -25 -83 -69 -182 l-79 -178 -53 -18 c-70 -24 -96 -56 -139 -172 -31 -81 -35 -104 -35 -183 1 -131 38 -195 113 -195 35 0 53 19 82 87 12 29 28 57 35 63 8 7 81 11 201 11 l188 0 34 -68 c19 -37 41 -74 50 -80 27 -22 71 -15 102 15 62 63 67 217 10 360 -39 101 -77 148 -133 164 -23 6 -46 15 -51 19 -5 5 -44 87 -87 184 l-77 175 629 0 c346 0 629 -4 629 -8 0 -7 -246 -567 -300 -684 -11 -22 -20 -28 -46 -28 -44 0 -48 -11 -21 -51 14 -22 46 -46 90 -68 59 -30 67 -37 67 -63 l0 -28 243 2 242 3 3 23 c2 14 14 27 30 33 70 26 113 53 132 83 30 50 27 66 -15 66 -25 0 -39 6 -49 23 -15 23 -306 680 -306 691 0 3 7 6 15 6 11 0 15 12 15 50 l0 50 -730 0 -730 0 0 -49z m129 -284 c34 -76 61 -141 61 -145 0 -4 -57 -6 -127 -5 -98 2 -127 6 -125 15 4 14 99 231 114 261 5 10 11 17 13 15 2 -1 31 -65 64 -141z m1401 -178 c71 -162 130 -297 130 -301 0 -5 -119 -8 -265 -8 -146 0 -265 3 -265 6 0 10 263 604 267 601 1 -2 61 -136 133 -298z m-1642 -116 c2 -15 10 -23 23 -23 26 0 25 -36 -1 -43 -12 -3 -20 -14 -20 -26 0 -16 -6 -21 -25 -21 -19 0 -25 5 -25 21 0 12 -8 23 -20 26 -11 3 -20 14 -20 24 0 12 7 19 20 19 15 0 20 7 20 26 0 21 4 25 23 22 14 -2 23 -11 25 -25z m390 4 c2 -12 -3 -17 -17 -17 -12 0 -21 6 -21 13 0 31 32 34 38 4z m-50 -50 c2 -10 -3 -17 -12 -17 -18 0 -29 16 -21 31 9 14 29 6 33 -14z m98 12 c10 -17 -13 -36 -27 -22 -12 12 -4 33 11 33 5 0 12 -5 16 -11z m-50 -50 c10 -17 -13 -36 -27 -22 -12 12 -4 33 11 33 5 0 12 -5 16 -11z"/>
            <path d="M5270 1400 c0 -17 8 -19 86 -22 l87 -3 -87 -68 c-57 -44 -86 -74 -86 -87 0 -19 7 -20 130 -20 123 0 130 1 130 20 0 17 -8 20 -92 22 l-91 3 91 69 c130 98 127 106 -38 106 -122 0 -130 -1 -130 -20z"/>
            <path d="M1080 840 l0 -530 50 0 50 0 0 530 0 530 -50 0 -50 0 0 -530z"/>
            <path d="M4680 1315 l0 -45 255 0 255 0 0 45 0 45 -255 0 -255 0 0 -45z"/>
            <path d="M4680 1070 l0 -130 260 0 260 0 0 45 0 45 -205 0 -205 0 0 85 0 85 -55 0 -55 0 0 -130z"/>
            <path d="M5478 1172 l-38 -17 0 -72 0 -72 -50 21 c-27 11 -50 23 -50 27 0 3 18 14 40 23 28 12 40 23 40 37 0 26 3 26 -75 -6 -57 -23 -65 -30 -65 -54 0 -25 9 -30 119 -78 66 -28 122 -51 125 -51 3 0 6 11 6 24 0 18 -8 27 -30 35 -29 10 -30 12 -30 69 0 57 1 60 30 72 21 9 30 19 30 36 0 28 -2 28 -52 6z"/>
            <path d="M4838 796 c-54 -20 -83 -40 -115 -83 -25 -32 -28 -45 -28 -109 0 -58 4 -78 21 -101 33 -44 81 -71 173 -99 183 -54 218 -74 227 -134 3 -25 -1 -45 -16 -68 -55 -89 -240 -83 -338 11 l-33 32 -30 -33 c-16 -18 -29 -39 -29 -47 0 -22 88 -81 149 -101 69 -22 193 -22 258 0 56 19 109 65 129 113 19 45 18 138 -3 180 -24 52 -85 90 -197 124 -178 53 -226 86 -212 145 26 103 199 124 312 38 l45 -35 20 23 c41 48 41 54 6 84 -57 48 -114 67 -212 71 -60 2 -103 -1 -127 -11z"/>
            <path d="M2290 656 l0 -146 50 0 50 0 0 101 0 101 118 -4 c93 -3 123 -7 145 -22 83 -56 72 -194 -18 -232 -25 -10 -77 -14 -190 -14 l-155 0 0 -190 0 -190 50 0 50 0 0 145 0 146 67 -3 67 -3 91 -142 90 -143 59 0 c47 0 57 3 53 15 -3 8 -46 74 -96 148 l-90 135 32 6 c93 19 151 99 152 211 0 91 -29 146 -99 190 l-49 30 -189 3 -188 4 0 -146z"/>
            <path d="M2900 630 l0 -170 50 0 50 0 0 170 0 170 -50 0 -50 0 0 -170z"/>
            <path d="M3400 630 l0 -170 55 0 55 0 0 170 0 170 -55 0 -55 0 0 -170z"/>
            <path d="M3580 510 l0 -290 50 0 50 0 0 290 0 290 -50 0 -50 0 0 -290z"/>
            <path d="M4100 675 l0 -125 50 0 50 0 0 80 0 80 195 0 195 0 0 45 0 45 -245 0 -245 0 0 -125z"/>
            <path d="M4100 435 l0 -45 240 0 240 0 0 45 0 45 -240 0 -240 0 0 -45z"/>
            <path d="M2902 328 c8 -89 26 -142 66 -188 63 -75 171 -107 297 -89 150 21 226 105 241 267 l7 72 -57 0 -56 0 0 -52 c-1 -87 -46 -162 -113 -187 -41 -16 -131 -13 -174 5 -21 8 -49 29 -62 46 -26 32 -51 112 -51 160 0 27 -2 28 -51 28 l-52 0 5 -62z"/>
            <path d="M4100 190 l0 -130 245 0 245 0 0 45 0 45 -195 0 -195 0 0 85 0 85 -50 0 -50 0 0 -130z"/>
            <path d="M690 250 l0 -50 440 0 440 0 0 50 0 50 -440 0 -440 0 0 -50z"/>
            <path d="M430 120 l0 -50 700 0 700 0 0 50 0 50 -700 0 -700 0 0 -50z"/>
            <path d="M3580 105 l0 -45 220 0 220 0 0 45 0 45 -220 0 -220 0 0 -45z"/>
        </g>
    </symbol>
</svg>